<svg xmlns="http://www.w3.org/2000/svg" width="764" height="676" viewBox="0 0 764 676"><defs><style type="text/css"/></defs><g transform="translate(-1278.1210572417128 1121.0724159652866) scale(1)"><g class="relationship"><g transform="translate(1659.8583678485356 -499.41474245828726) rotate(-120.00000000000001)" stroke-width="5" stroke="#000000"><path d="M 59 0 L 571.6124705958972 0"/><polygon points="-24.8621506177483,0 -27.62461179749811,9.20820393249937 0,0 -27.62461179749811,-9.20820393249937" fill="#000000" transform="translate(596.4746212136455 0) rotate(0)" stroke="none"/></g></g><g class="relationship"><g transform="translate(1332.1210572417128 -1067.0724159652866) rotate(0)" stroke-width="5" stroke="#000000"><path d="M 59 0 L 571.6124705958973 0"/><polygon points="-24.8621506177483,0 -27.62461179749811,9.20820393249937 0,0 -27.62461179749811,-9.20820393249937" fill="#000000" transform="translate(596.4746212136456 0) rotate(0)" stroke="none"/></g></g><g class="relationship"><g transform="translate(1987.5956784553584 -1067.0724159652866) rotate(120.00000000000001)" stroke-width="5" stroke="#000000"><path d="M 59 0 L 571.6124705958972 0"/><polygon points="-24.8621506177483,0 -27.62461179749811,9.20820393249937 0,0 -27.62461179749811,-9.20820393249937" fill="#000000" transform="translate(596.4746212136455 0) rotate(0)" stroke="none"/></g></g><g class="relationship"><g transform="translate(1659.8583678485356 -835.9842316095634) rotate(-144.81226541216884)" stroke-width="5" stroke="#000000"><path d="M 59 0 L 317.15342727495374 0"/><polygon points="-24.8621506177483,0 -27.62461179749811,9.20820393249937 0,0 -27.62461179749811,-9.20820393249937" fill="#000000" transform="translate(342.015577892702 0) rotate(0)" stroke="none"/></g></g><g class="relationship"><g transform="translate(1659.8583678485356 -835.9842316095634) rotate(-35.18773458783116)" stroke-width="5" stroke="#000000"><path d="M 59 0 L 317.15342727495374 0"/><polygon points="-24.8621506177483,0 -27.62461179749811,9.20820393249937 0,0 -27.62461179749811,-9.20820393249937" fill="#000000" transform="translate(342.015577892702 0) rotate(0)" stroke="none"/></g></g><g class="relationship"><g transform="translate(1659.8583678485356 -835.9842316095634) rotate(90)" stroke-width="5" stroke="#000000"><path d="M 59 0 L 252.7073385335278 0"/><polygon points="-24.8621506177483,0 -27.62461179749811,9.20820393249937 0,0 -27.62461179749811,-9.20820393249937" fill="#000000" transform="translate(277.5694891512761 0) rotate(0)" stroke="none"/></g></g><g class="node"><g fill="#68bc00" stroke="#000000" stroke-width="4"><circle cx="1332.1210572417128" cy="-1067.0724159652866" r="52"/></g><g transform="translate(1332.1210572417128 -1067.0724159652866)"><g transform="scale(0.42578182421875) translate(0 0)"><g transform="translate(0 0)"><g font-family="sans-serif" font-size="50" font-weight="normal" fill="#000000" text-anchor="middle"><text xml:space="preserve" x="0" y="14.5" stroke="none">cluster0</text></g></g></g></g></g><g class="node"><g fill="#68bc00" stroke="#000000" stroke-width="4"><circle cx="1659.8583678485356" cy="-499.41474245828726" r="52"/></g><g transform="translate(1659.8583678485356 -499.41474245828726)"><g transform="scale(0.42578182421875) translate(0 0)"><g transform="translate(0 0)"><g font-family="sans-serif" font-size="50" font-weight="normal" fill="#000000" text-anchor="middle"><text xml:space="preserve" x="0" y="14.5" stroke="none">cluster2</text></g></g></g></g></g><g class="node"><g fill="#68bc00" stroke="#000000" stroke-width="4"><circle cx="1987.5956784553584" cy="-1067.0724159652866" r="52"/></g><g transform="translate(1987.5956784553584 -1067.0724159652866)"><g transform="scale(0.42578182421875) translate(0 0)"><g transform="translate(0 0)"><g font-family="sans-serif" font-size="50" font-weight="normal" fill="#000000" text-anchor="middle"><text xml:space="preserve" x="0" y="14.5" stroke="none">cluster1</text></g></g></g></g></g><g class="node"><g fill="#aea1ff" stroke="#000000" stroke-width="4"><circle cx="1659.8583678485356" cy="-835.9842316095634" r="52"/></g><g transform="translate(1659.8583678485356 -835.9842316095634)"><g transform="scale(0.6250003749999999) translate(0 0)"><g transform="translate(0 0)"><g font-family="sans-serif" font-size="50" font-weight="normal" fill="#000000" text-anchor="middle"><text xml:space="preserve" x="0" y="14.5" stroke="none">NATS</text></g></g></g></g></g></g></svg>